<?xml version="1.0" encoding="utf-8"?>
<!-- Generator: Adobe Illustrator 25.2.3, SVG Export Plug-In . SVG Version: 6.00 Build 0)  -->
<svg version="1.1" id="Layer_1" xmlns="http://www.w3.org/2000/svg" xmlns:xlink="http://www.w3.org/1999/xlink" x="0px" y="0px"
	 viewBox="0 0 512 512" style="enable-background:new 0 0 512 512;" xml:space="preserve">
<style type="text/css">
	.st0{fill:#FFFFFF;}
</style>
<g>
	<g>
		<g>
			<path class="st0" d="M256,0C114.6,0,0,114.6,0,256s114.6,256,256,256s256-114.6,256-256S397.4,0,256,0z M256,469.3
				c-117.8,0-213.3-95.5-213.3-213.3S138.2,42.7,256,42.7S469.3,138.2,469.3,256S373.8,469.3,256,469.3z"/>
			<path class="st0" d="M313.8,134.2c-8.3-8.3-21.8-8.3-30.2,0L176.9,240.9c-8.3,8.3-8.3,21.8,0,30.2l106.7,106.7
				c8.3,8.3,21.8,8.3,30.2,0c8.3-8.3,8.3-21.8,0-30.2L222.2,256l91.6-91.6C322.1,156.1,322.1,142.6,313.8,134.2z"/>
		</g>
	</g>
</g>
</svg>
