<?xml version="1.0" encoding="utf-8"?>
<!-- Generator: Adobe Illustrator 25.2.3, SVG Export Plug-In . SVG Version: 6.00 Build 0)  -->
<svg version="1.1" id="Layer_1" xmlns="http://www.w3.org/2000/svg" xmlns:xlink="http://www.w3.org/1999/xlink" x="0px" y="0px"
	 viewBox="0 0 512 512" style="enable-background:new 0 0 512 512;" xml:space="preserve">
<style type="text/css">
	.st0{fill:#FFFFFF;}
</style>
<g>
	<g>
		<g>
			<path class="st0" d="M256,512c141.4,0,256-114.6,256-256S397.4,0,256,0S0,114.6,0,256S114.6,512,256,512z M256,42.7
				c117.8,0,213.3,95.5,213.3,213.3S373.8,469.3,256,469.3S42.7,373.8,42.7,256S138.2,42.7,256,42.7z"/>
			<path class="st0" d="M198.2,377.8c8.3,8.3,21.8,8.3,30.2,0l106.7-106.7c8.3-8.3,8.3-21.8,0-30.2L228.4,134.2
				c-8.3-8.3-21.8-8.3-30.2,0c-8.3,8.3-8.3,21.8,0,30.2l91.6,91.6l-91.6,91.6C189.9,355.9,189.9,369.4,198.2,377.8z"/>
		</g>
	</g>
</g>
</svg>
